# xmcd
#
# Track frame offsets: 
#        150
#        20870
#        40105
#        69410
#        90547
#        106927
#        134857
#        156352
#        176105
#        190782
#        210347
#        230802
#        250850
#
# Disc length: 3698 seconds
#
# Revision: 4
# Processed by: cddbd v1.5.2PL0 Copyright (c) Steve Scherf et al.
# Submitted via: ExactAudioCopy v1.1
#
DISCID=b80e700d
DTITLE=Various Artist - Paint It Blue: The Songs of the Rolling Stone
DTITLE=s
DYEAR=1997
DGENRE=Blues
TTITLE0=Luther Allison - You Can't Always Get What You Want
TTITLE1=Johnny Copeland - Tumblin' Dice
TTITLE2=Otis Clay - Wild Horses
TTITLE3=Taj Mahal - Honky Tonk Women
TTITLE4=Alvin "Youngblood" Hart - Sway
TTITLE5=Clarence "Gatemouth" Brown and Larry McCray - Ventilator Blues
TTITLE6=Wendell Holmes - Beast of Burden
TTITLE7=Lucky Peterson - Under My Thumb
TTITLE8=Bobby Womack - It's All Over Now
TTITLE9=Larry McCray - Midnight Rambler
TTITLE10=Joe Louis Walker - Heart of Stone
TTITLE11=Alvin "Youngblood" Hart - Moonlight Mile
TTITLE12=Junior Wells - (I Can't Get No) Satisfaction
EXTD=
EXTT0=Luther Allison
EXTT1=Johnny Copeland
EXTT2=Otis Clay
EXTT3=Taj Mahal and James Cotton
EXTT4=Alvin 'Youngblood' Hart
EXTT5=Clarence 'Gatemouth' Brown and Larry McCray
EXTT6=Wendell Holmes
EXTT7=Lucky Peterson
EXTT8=Bobby Womack
EXTT9=Larry McCray
EXTT10=Joe Louis Walker
EXTT11=Alvin 'Youngblood' Hart
EXTT12=Junior Wells
PLAYORDER=
